<svg width="37" height="37" viewBox="0 0 37 37" fill="none" xmlns="http://www.w3.org/2000/svg">
<path d="M33.6783 19.6298L32.2649 19.1976C32.0688 19.1377 31.8618 19.1941 31.7294 19.3433C31.386 19.7309 31.0092 20.0994 30.6093 20.4387C27.6452 22.9537 23.9246 23.8125 19.85 22.9233C15.7957 22.0386 13.9322 19.692 11.353 16.4441C11.1686 16.2118 10.981 15.9756 10.7891 15.7357C10.7673 15.7083 10.7416 15.6724 10.7144 15.6344C10.6428 15.5343 10.5536 15.4098 10.4281 15.287C10.2576 15.1201 10.0719 14.9646 9.87608 14.825C9.47155 14.5364 9.20177 14.082 9.13606 13.5784L8.70242 10.2566C8.6836 10.1126 8.60979 9.97958 8.49713 9.88658C8.38455 9.79352 8.24231 9.74818 8.10175 9.76061L5.96171 9.94883C5.66922 9.97446 5.46368 10.2384 5.50272 10.5381L5.91867 13.7244C5.9642 14.0732 5.85142 14.428 5.60922 14.6977C5.23932 15.1095 5.05087 15.6178 5.06425 16.1673C5.2326 23.1161 9.89164 28.2594 17.5271 29.9255C20.8224 30.6445 24.3266 30.2145 27.3941 28.7146C28.0115 28.4127 28.5957 28.0749 29.1441 27.7029C29.9085 27.1844 30.6034 26.5995 31.2215 25.9536C32.3264 24.7991 33.1295 23.5062 33.6087 22.111C33.8142 21.5124 33.971 20.8917 34.0744 20.266C34.1203 19.989 33.948 19.7123 33.6783 19.6298ZM6.63318 10.9875L7.71361 10.8925L8.00107 13.0943L7.56476 13.105L6.91169 13.121L6.63318 10.9875ZM28.5314 26.7872C25.5608 28.8018 21.5296 29.6956 17.7032 28.8607C10.613 27.3135 6.28765 22.5775 6.13291 16.1918C6.12455 15.8488 6.28076 15.6009 6.41325 15.4535C6.72799 15.1029 6.92318 14.6684 6.98016 14.2102L8.18865 14.1806C8.38109 14.7938 8.76716 15.3339 9.29112 15.7076C9.43875 15.8129 9.57857 15.9299 9.7067 16.0553C9.75947 16.107 9.80634 16.1726 9.8607 16.2485C9.89561 16.2973 9.93166 16.3477 9.97286 16.3992C10.1639 16.6383 10.3508 16.8735 10.5345 17.1049C13.1583 20.409 15.2307 23.0186 19.6737 23.9881C21.9004 24.474 24.0495 24.4727 26.0614 23.9844C27.8865 23.5414 29.5656 22.7073 31.0574 21.5031L31.0933 21.5206L31.2848 21.6142C30.5154 22.8093 29.5337 23.8047 28.3974 24.5753C25.9006 26.2686 22.662 26.879 19.3163 26.149C14.1068 25.0123 10.3962 22.2086 8.86781 18.2544C8.758 17.9702 8.44684 17.8198 8.17276 17.9184C7.8987 18.0169 7.7657 18.3273 7.87554 18.6116C9.54805 22.9387 13.5485 25.9938 19.1401 27.2138C21.8685 27.8091 24.5783 27.5923 26.9764 26.5867C27.7048 26.2813 28.3903 25.9101 29.0272 25.478C30.3342 24.5915 31.4353 23.4491 32.2776 22.0992L32.424 22.1707C31.6693 24.0172 30.2854 25.5976 28.5314 26.7872ZM32.7706 21.1544L32.5521 21.0477L31.9213 20.7396C32.0568 20.6079 32.1891 20.4733 32.3175 20.3361L32.9274 20.5226C32.8817 20.7348 32.8294 20.9456 32.7706 21.1544Z" fill="black"/>
</svg>
