<svg width="343" height="288" viewBox="0 0 343 288" fill="none" xmlns="http://www.w3.org/2000/svg">
<g clip-path="url(#clip0_1_174)">
<path fill-rule="evenodd" clip-rule="evenodd" d="M0 0H343V288H0V0Z" fill="#EDEDED"/>
<path fill-rule="evenodd" clip-rule="evenodd" d="M0 0H343V288H0V0Z" fill="#242121" fill-opacity="0.8"/>
<path d="M6 6H337V282H6V6Z" stroke="white" stroke-opacity="0.147164" stroke-width="12"/>
<path d="M119.127 146.286C119.127 147.175 118.806 147.872 118.163 148.378C117.521 148.884 116.634 149.137 115.504 149.137C114.374 149.137 113.449 148.961 112.729 148.61V147.065C113.184 147.28 113.668 147.448 114.178 147.571C114.693 147.694 115.171 147.756 115.613 147.756C116.261 147.756 116.737 147.633 117.042 147.387C117.352 147.141 117.507 146.81 117.507 146.396C117.507 146.022 117.366 145.705 117.083 145.445C116.801 145.186 116.217 144.878 115.333 144.522C114.422 144.153 113.779 143.732 113.405 143.258C113.032 142.784 112.845 142.214 112.845 141.549C112.845 140.715 113.141 140.059 113.734 139.58C114.326 139.102 115.121 138.862 116.119 138.862C117.076 138.862 118.029 139.072 118.977 139.491L118.457 140.824C117.569 140.451 116.776 140.264 116.078 140.264C115.55 140.264 115.149 140.38 114.875 140.612C114.602 140.84 114.465 141.143 114.465 141.521C114.465 141.781 114.52 142.005 114.629 142.191C114.738 142.374 114.918 142.547 115.169 142.711C115.42 142.875 115.871 143.091 116.523 143.36C117.256 143.666 117.794 143.951 118.136 144.215C118.478 144.479 118.728 144.778 118.888 145.11C119.047 145.443 119.127 145.835 119.127 146.286ZM130.344 149H128.703V144.495H124.096V149H122.462V139.006H124.096V143.094H128.703V139.006H130.344V149ZM143.248 143.989C143.248 145.616 142.841 146.881 142.025 147.783C141.214 148.686 140.063 149.137 138.573 149.137C137.064 149.137 135.904 148.69 135.093 147.797C134.287 146.899 133.883 145.625 133.883 143.976C133.883 142.326 134.289 141.059 135.1 140.175C135.916 139.291 137.078 138.849 138.586 138.849C140.072 138.849 141.22 139.298 142.032 140.195C142.843 141.093 143.248 142.358 143.248 143.989ZM135.62 143.989C135.62 145.22 135.868 146.154 136.365 146.792C136.861 147.425 137.597 147.742 138.573 147.742C139.543 147.742 140.275 147.428 140.767 146.799C141.264 146.17 141.512 145.233 141.512 143.989C141.512 142.763 141.266 141.834 140.774 141.2C140.286 140.567 139.557 140.25 138.586 140.25C137.607 140.25 136.866 140.567 136.365 141.2C135.868 141.834 135.62 142.763 135.62 143.989ZM156.017 149H154.239L152.544 143.039C152.471 142.779 152.38 142.406 152.271 141.918C152.161 141.426 152.095 141.084 152.072 140.893C152.027 141.184 151.951 141.562 151.847 142.027C151.746 142.492 151.662 142.839 151.594 143.066L149.939 149H148.162L146.87 143.996L145.558 139.006H147.226L148.654 144.83C148.878 145.764 149.037 146.589 149.133 147.305C149.183 146.917 149.258 146.484 149.358 146.006C149.459 145.527 149.55 145.14 149.632 144.844L151.259 139.006H152.879L154.547 144.871C154.706 145.413 154.875 146.225 155.053 147.305C155.121 146.653 155.285 145.824 155.545 144.816L156.967 139.006H158.621L156.017 149ZM173.097 142.027C173.097 143.071 172.755 143.871 172.071 144.427C171.388 144.983 170.415 145.261 169.153 145.261H168.113V149H166.48V139.006H169.358C170.606 139.006 171.541 139.261 172.16 139.771C172.785 140.282 173.097 141.034 173.097 142.027ZM168.113 143.887H168.982C169.82 143.887 170.435 143.741 170.827 143.449C171.219 143.158 171.415 142.702 171.415 142.082C171.415 141.508 171.24 141.079 170.889 140.797C170.538 140.514 169.991 140.373 169.248 140.373H168.113V143.887ZM178.127 143.654H179.262C180.023 143.654 180.574 143.513 180.916 143.23C181.258 142.948 181.429 142.529 181.429 141.973C181.429 141.408 181.244 141.002 180.875 140.756C180.506 140.51 179.95 140.387 179.207 140.387H178.127V143.654ZM178.127 145.008V149H176.493V139.006H179.316C180.606 139.006 181.561 139.247 182.18 139.73C182.8 140.214 183.11 140.943 183.11 141.918C183.11 143.162 182.463 144.049 181.169 144.577L183.992 149H182.133L179.74 145.008H178.127ZM195.721 143.989C195.721 145.616 195.313 146.881 194.497 147.783C193.686 148.686 192.536 149.137 191.045 149.137C189.537 149.137 188.377 148.69 187.566 147.797C186.759 146.899 186.356 145.625 186.356 143.976C186.356 142.326 186.761 141.059 187.573 140.175C188.388 139.291 189.551 138.849 191.059 138.849C192.545 138.849 193.693 139.298 194.504 140.195C195.316 141.093 195.721 142.358 195.721 143.989ZM188.092 143.989C188.092 145.22 188.341 146.154 188.837 146.792C189.334 147.425 190.07 147.742 191.045 147.742C192.016 147.742 192.747 147.428 193.24 146.799C193.736 146.17 193.985 145.233 193.985 143.989C193.985 142.763 193.739 141.834 193.246 141.2C192.759 140.567 192.03 140.25 191.059 140.25C190.079 140.25 189.339 140.567 188.837 141.2C188.341 141.834 188.092 142.763 188.092 143.989ZM198.003 151.789C197.556 151.789 197.183 151.732 196.882 151.618V150.244C197.265 150.34 197.597 150.388 197.88 150.388C198.773 150.388 199.22 149.823 199.22 148.692V139.006H200.86V148.638C200.86 149.659 200.617 150.438 200.129 150.976C199.646 151.518 198.937 151.789 198.003 151.789ZM210.504 149H204.851V139.006H210.504V140.387H206.485V143.107H210.252V144.475H206.485V147.612H210.504V149ZM218.323 140.264C217.385 140.264 216.646 140.596 216.109 141.262C215.571 141.927 215.302 142.845 215.302 144.017C215.302 145.243 215.559 146.17 216.074 146.799C216.594 147.428 217.344 147.742 218.323 147.742C218.747 147.742 219.157 147.701 219.554 147.619C219.95 147.533 220.363 147.423 220.791 147.291V148.692C220.007 148.989 219.119 149.137 218.125 149.137C216.662 149.137 215.539 148.695 214.755 147.811C213.971 146.922 213.579 145.653 213.579 144.003C213.579 142.964 213.768 142.055 214.147 141.275C214.529 140.496 215.081 139.899 215.801 139.484C216.521 139.07 217.366 138.862 218.337 138.862C219.358 138.862 220.301 139.076 221.167 139.505L220.579 140.865C220.242 140.706 219.884 140.567 219.506 140.448C219.132 140.325 218.738 140.264 218.323 140.264ZM227.797 149H226.163V140.407H223.223V139.006H230.736V140.407H227.797V149Z" fill="white"/>
</g>
<defs>
<clipPath id="clip0_1_174">
<rect width="343" height="288" fill="white"/>
</clipPath>
</defs>
</svg>
